<?xml version="1.0" ?><svg viewBox="0 0 25 25" xmlns="http://www.w3.org/2000/svg"><defs><style>.cls-1{fill:#525967;}.cls-2{fill:#454b57;}.cls-3{fill:none;}.cls-4{fill:#0acf83;}.cls-5{fill:#a259ff;}.cls-6{fill:#f24e1e;}.cls-7{fill:#ff7262;}.cls-8{fill:#1abcfe;}</style></defs><title/><g data-name="Layer 2" id="Layer_2"><g data-name="Layer 1 copy" id="Layer_1_copy"><g data-name="figma round" id="figma_round"><g id="explore"><circle class="cls-1" cx="12.5" cy="12.5" r="7.85"/><path class="cls-2" d="M12.5,5.25A7.25,7.25,0,1,1,5.25,12.5,7.26,7.26,0,0,1,12.5,5.25m0-.6a7.85,7.85,0,1,0,7.85,7.85A7.85,7.85,0,0,0,12.5,4.65Z"/></g><rect class="cls-3" height="25" width="25"/><g data-name="ads manager" id="ads_manager"><path class="cls-4" d="M11,17.11a1.54,1.54,0,0,0,1.54-1.54V14H11a1.54,1.54,0,0,0,0,3.08Z" data-name="path0 fill" id="path0_fill"/><path class="cls-5" d="M9.42,12.5A1.54,1.54,0,0,1,11,11H12.5V14H11A1.54,1.54,0,0,1,9.42,12.5Z" data-name="path1 fill" id="path1_fill"/><path class="cls-6" d="M9.42,9.42A1.54,1.54,0,0,1,11,7.89H12.5V11H11A1.54,1.54,0,0,1,9.42,9.42Z" data-name="path1 fill" id="path1_fill-2"/><path class="cls-7" d="M12.5,7.89H14A1.54,1.54,0,0,1,14,11H12.5Z" data-name="path2 fill" id="path2_fill"/><path class="cls-8" d="M15.58,12.5A1.54,1.54,0,1,1,14,11,1.54,1.54,0,0,1,15.58,12.5Z" data-name="path3 fill" id="path3_fill"/></g></g></g></g></svg>